G04 #@! TF.GenerationSoftware,KiCad,Pcbnew,(5.0.2)-1*
G04 #@! TF.CreationDate,2019-08-18T16:28:34-04:00*
G04 #@! TF.ProjectId,stacked_model3_usb,73746163-6b65-4645-9f6d-6f64656c335f,rev?*
G04 #@! TF.SameCoordinates,Original*
G04 #@! TF.FileFunction,Legend,Bot*
G04 #@! TF.FilePolarity,Positive*
%FSLAX46Y46*%
G04 Gerber Fmt 4.6, Leading zero omitted, Abs format (unit mm)*
G04 Created by KiCad (PCBNEW (5.0.2)-1) date 2019-08-18 4:28:34 PM*
%MOMM*%
%LPD*%
G01*
G04 APERTURE LIST*
%ADD10C,0.300000*%
%ADD11C,0.010000*%
%ADD12C,0.120000*%
G04 APERTURE END LIST*
D10*
X125542857Y-80000000D02*
X125542857Y-80228571D01*
X125600000Y-80342857D01*
X125714285Y-80457142D01*
X125942857Y-80514285D01*
X126342857Y-80514285D01*
X126571428Y-80457142D01*
X126685714Y-80342857D01*
X126742857Y-80228571D01*
X126742857Y-80000000D01*
X126685714Y-79885714D01*
X126571428Y-79771428D01*
X126342857Y-79714285D01*
X125942857Y-79714285D01*
X125714285Y-79771428D01*
X125600000Y-79885714D01*
X125542857Y-80000000D01*
X126685714Y-80971428D02*
X126742857Y-81142857D01*
X126742857Y-81428571D01*
X126685714Y-81542857D01*
X126628571Y-81600000D01*
X126514285Y-81657142D01*
X126400000Y-81657142D01*
X126285714Y-81600000D01*
X126228571Y-81542857D01*
X126171428Y-81428571D01*
X126114285Y-81200000D01*
X126057142Y-81085714D01*
X126000000Y-81028571D01*
X125885714Y-80971428D01*
X125771428Y-80971428D01*
X125657142Y-81028571D01*
X125600000Y-81085714D01*
X125542857Y-81200000D01*
X125542857Y-81485714D01*
X125600000Y-81657142D01*
X126742857Y-82171428D02*
X125542857Y-82171428D01*
X126114285Y-82171428D02*
X126114285Y-82857142D01*
X126742857Y-82857142D02*
X125542857Y-82857142D01*
X125542857Y-83314285D02*
X126742857Y-83600000D01*
X125885714Y-83828571D01*
X126742857Y-84057142D01*
X125542857Y-84342857D01*
X140263095Y-74947857D02*
X138963095Y-74947857D01*
X139891666Y-75347857D01*
X138963095Y-75747857D01*
X140263095Y-75747857D01*
X138963095Y-76205000D02*
X138963095Y-76947857D01*
X139458333Y-76547857D01*
X139458333Y-76719285D01*
X139520238Y-76833571D01*
X139582142Y-76890714D01*
X139705952Y-76947857D01*
X140015476Y-76947857D01*
X140139285Y-76890714D01*
X140201190Y-76833571D01*
X140263095Y-76719285D01*
X140263095Y-76376428D01*
X140201190Y-76262142D01*
X140139285Y-76205000D01*
X138963095Y-78376428D02*
X140015476Y-78376428D01*
X140139285Y-78433571D01*
X140201190Y-78490714D01*
X140263095Y-78605000D01*
X140263095Y-78833571D01*
X140201190Y-78947857D01*
X140139285Y-79005000D01*
X140015476Y-79062142D01*
X138963095Y-79062142D01*
X140201190Y-79576428D02*
X140263095Y-79747857D01*
X140263095Y-80033571D01*
X140201190Y-80147857D01*
X140139285Y-80205000D01*
X140015476Y-80262142D01*
X139891666Y-80262142D01*
X139767857Y-80205000D01*
X139705952Y-80147857D01*
X139644047Y-80033571D01*
X139582142Y-79805000D01*
X139520238Y-79690714D01*
X139458333Y-79633571D01*
X139334523Y-79576428D01*
X139210714Y-79576428D01*
X139086904Y-79633571D01*
X139025000Y-79690714D01*
X138963095Y-79805000D01*
X138963095Y-80090714D01*
X139025000Y-80262142D01*
X139582142Y-81176428D02*
X139644047Y-81347857D01*
X139705952Y-81405000D01*
X139829761Y-81462142D01*
X140015476Y-81462142D01*
X140139285Y-81405000D01*
X140201190Y-81347857D01*
X140263095Y-81233571D01*
X140263095Y-80776428D01*
X138963095Y-80776428D01*
X138963095Y-81176428D01*
X139025000Y-81290714D01*
X139086904Y-81347857D01*
X139210714Y-81405000D01*
X139334523Y-81405000D01*
X139458333Y-81347857D01*
X139520238Y-81290714D01*
X139582142Y-81176428D01*
X139582142Y-80776428D01*
X142451190Y-74833571D02*
X142513095Y-75005000D01*
X142513095Y-75290714D01*
X142451190Y-75405000D01*
X142389285Y-75462142D01*
X142265476Y-75519285D01*
X142141666Y-75519285D01*
X142017857Y-75462142D01*
X141955952Y-75405000D01*
X141894047Y-75290714D01*
X141832142Y-75062142D01*
X141770238Y-74947857D01*
X141708333Y-74890714D01*
X141584523Y-74833571D01*
X141460714Y-74833571D01*
X141336904Y-74890714D01*
X141275000Y-74947857D01*
X141213095Y-75062142D01*
X141213095Y-75347857D01*
X141275000Y-75519285D01*
X142513095Y-76033571D02*
X141213095Y-76033571D01*
X141213095Y-76490714D01*
X141275000Y-76605000D01*
X141336904Y-76662142D01*
X141460714Y-76719285D01*
X141646428Y-76719285D01*
X141770238Y-76662142D01*
X141832142Y-76605000D01*
X141894047Y-76490714D01*
X141894047Y-76033571D01*
X142513095Y-77805000D02*
X142513095Y-77233571D01*
X141213095Y-77233571D01*
X142513095Y-78205000D02*
X141213095Y-78205000D01*
X141213095Y-78605000D02*
X141213095Y-79290714D01*
X142513095Y-78947857D02*
X141213095Y-78947857D01*
X141213095Y-79519285D02*
X141213095Y-80205000D01*
X142513095Y-79862142D02*
X141213095Y-79862142D01*
X141832142Y-80605000D02*
X141832142Y-81005000D01*
X142513095Y-81176428D02*
X142513095Y-80605000D01*
X141213095Y-80605000D01*
X141213095Y-81176428D01*
X142513095Y-82376428D02*
X141894047Y-81976428D01*
X142513095Y-81690714D02*
X141213095Y-81690714D01*
X141213095Y-82147857D01*
X141275000Y-82262142D01*
X141336904Y-82319285D01*
X141460714Y-82376428D01*
X141646428Y-82376428D01*
X141770238Y-82319285D01*
X141832142Y-82262142D01*
X141894047Y-82147857D01*
X141894047Y-81690714D01*
D11*
G04 #@! TO.C,REF\002A\002A*
G36*
X137930931Y-89011314D02*
X138375555Y-89095135D01*
X138503053Y-89404420D01*
X138630551Y-89713706D01*
X138378246Y-90084746D01*
X138307996Y-90188657D01*
X138245272Y-90282587D01*
X138192938Y-90362152D01*
X138153857Y-90422970D01*
X138130893Y-90460657D01*
X138125942Y-90470921D01*
X138138676Y-90489410D01*
X138173882Y-90528920D01*
X138227062Y-90585022D01*
X138293718Y-90653287D01*
X138369354Y-90729286D01*
X138449472Y-90808592D01*
X138529574Y-90886775D01*
X138605164Y-90959407D01*
X138671745Y-91022059D01*
X138724818Y-91070303D01*
X138759887Y-91099710D01*
X138771623Y-91106741D01*
X138793260Y-91096623D01*
X138840662Y-91068259D01*
X138909193Y-91024629D01*
X138994215Y-90968718D01*
X139091093Y-90903506D01*
X139146350Y-90865719D01*
X139247248Y-90796843D01*
X139338299Y-90735640D01*
X139414970Y-90685078D01*
X139472728Y-90648128D01*
X139507043Y-90627758D01*
X139514254Y-90624697D01*
X139534748Y-90631636D01*
X139582513Y-90650551D01*
X139650832Y-90678587D01*
X139732989Y-90712891D01*
X139822270Y-90750609D01*
X139911958Y-90788887D01*
X139995338Y-90824870D01*
X140065694Y-90855706D01*
X140116310Y-90878539D01*
X140140471Y-90890517D01*
X140141422Y-90891224D01*
X140146036Y-90910031D01*
X140156328Y-90960118D01*
X140171287Y-91036293D01*
X140189901Y-91133365D01*
X140211159Y-91246143D01*
X140223418Y-91311942D01*
X140246362Y-91432450D01*
X140268195Y-91541297D01*
X140287722Y-91632976D01*
X140303748Y-91701981D01*
X140315079Y-91742804D01*
X140318674Y-91751011D01*
X140343006Y-91759048D01*
X140397959Y-91765533D01*
X140477108Y-91770470D01*
X140574026Y-91773864D01*
X140682287Y-91775718D01*
X140795465Y-91776038D01*
X140907135Y-91774827D01*
X141010868Y-91772090D01*
X141100241Y-91767831D01*
X141168826Y-91762055D01*
X141210197Y-91754767D01*
X141218810Y-91750395D01*
X141229133Y-91724264D01*
X141243892Y-91668893D01*
X141261352Y-91591607D01*
X141279780Y-91499730D01*
X141285741Y-91467658D01*
X141314066Y-91313024D01*
X141336876Y-91190875D01*
X141355080Y-91097173D01*
X141369583Y-91027884D01*
X141381292Y-90978971D01*
X141391115Y-90946397D01*
X141399956Y-90926128D01*
X141408724Y-90914126D01*
X141410457Y-90912447D01*
X141438371Y-90895684D01*
X141492695Y-90870114D01*
X141566777Y-90838288D01*
X141653965Y-90802760D01*
X141747608Y-90766083D01*
X141841052Y-90730811D01*
X141927647Y-90699496D01*
X142000740Y-90674693D01*
X142053678Y-90658954D01*
X142079811Y-90654832D01*
X142080726Y-90655176D01*
X142102086Y-90669141D01*
X142149084Y-90700822D01*
X142216827Y-90746891D01*
X142300423Y-90804018D01*
X142394982Y-90868873D01*
X142421854Y-90887343D01*
X142519275Y-90953199D01*
X142608163Y-91011150D01*
X142683412Y-91058038D01*
X142739920Y-91090707D01*
X142772581Y-91106000D01*
X142776593Y-91106741D01*
X142797684Y-91093892D01*
X142839464Y-91058388D01*
X142897445Y-91004793D01*
X142967135Y-90937671D01*
X143044045Y-90861587D01*
X143123683Y-90781104D01*
X143201561Y-90700787D01*
X143273186Y-90625199D01*
X143334070Y-90558905D01*
X143379721Y-90506469D01*
X143405650Y-90472455D01*
X143409883Y-90463045D01*
X143399912Y-90441143D01*
X143373020Y-90396300D01*
X143333736Y-90335821D01*
X143302117Y-90289289D01*
X143244098Y-90204975D01*
X143175784Y-90105126D01*
X143107579Y-90004973D01*
X143071075Y-89951127D01*
X142947800Y-89768871D01*
X143030520Y-89615881D01*
X143066759Y-89546182D01*
X143094926Y-89486914D01*
X143110991Y-89446811D01*
X143113226Y-89436603D01*
X143096722Y-89424329D01*
X143050082Y-89400113D01*
X142977609Y-89365763D01*
X142883606Y-89323088D01*
X142772374Y-89273894D01*
X142648215Y-89219990D01*
X142515432Y-89163184D01*
X142378327Y-89105282D01*
X142241202Y-89048093D01*
X142108358Y-88993424D01*
X141984098Y-88943084D01*
X141872725Y-88898880D01*
X141778539Y-88862619D01*
X141705844Y-88836109D01*
X141658941Y-88821158D01*
X141642833Y-88818754D01*
X141622286Y-88837811D01*
X141588933Y-88879536D01*
X141549702Y-88935206D01*
X141546599Y-88939878D01*
X141431423Y-89083764D01*
X141297053Y-89199783D01*
X141147784Y-89286930D01*
X140987913Y-89344199D01*
X140821737Y-89370586D01*
X140653552Y-89365085D01*
X140487655Y-89326690D01*
X140328342Y-89254395D01*
X140293487Y-89233126D01*
X140152737Y-89122496D01*
X140039714Y-88991802D01*
X139955003Y-88845564D01*
X139899194Y-88688308D01*
X139872874Y-88524557D01*
X139876630Y-88358833D01*
X139911050Y-88195662D01*
X139976723Y-88039565D01*
X140074235Y-87895067D01*
X140113813Y-87850369D01*
X140237703Y-87736612D01*
X140368124Y-87653718D01*
X140514315Y-87596856D01*
X140659088Y-87565187D01*
X140821860Y-87557369D01*
X140985440Y-87583438D01*
X141144298Y-87640745D01*
X141292906Y-87726644D01*
X141425735Y-87838486D01*
X141537256Y-87973623D01*
X141549011Y-87991383D01*
X141587508Y-88047650D01*
X141620863Y-88090423D01*
X141642160Y-88110872D01*
X141642833Y-88111169D01*
X141665871Y-88106779D01*
X141718157Y-88089376D01*
X141795390Y-88060768D01*
X141893268Y-88022765D01*
X142007491Y-87977174D01*
X142133758Y-87925803D01*
X142267767Y-87870462D01*
X142405218Y-87812958D01*
X142541808Y-87755101D01*
X142673237Y-87698698D01*
X142795205Y-87645558D01*
X142903409Y-87597490D01*
X142993549Y-87556301D01*
X143061323Y-87523801D01*
X143102430Y-87501797D01*
X143113226Y-87492936D01*
X143104819Y-87465860D01*
X143082272Y-87415197D01*
X143049613Y-87349683D01*
X143030520Y-87313659D01*
X142947800Y-87160668D01*
X143071075Y-86978412D01*
X143134228Y-86885375D01*
X143203727Y-86783515D01*
X143269165Y-86688062D01*
X143302117Y-86640250D01*
X143347273Y-86573005D01*
X143383057Y-86516064D01*
X143404938Y-86476854D01*
X143409563Y-86464119D01*
X143397085Y-86445583D01*
X143362252Y-86404559D01*
X143308678Y-86345025D01*
X143239983Y-86270958D01*
X143159781Y-86186335D01*
X143108286Y-86132815D01*
X143016286Y-86039181D01*
X142933999Y-85958259D01*
X142864945Y-85893323D01*
X142812644Y-85847642D01*
X142780616Y-85824489D01*
X142774116Y-85822268D01*
X142749394Y-85832576D01*
X142699405Y-85861061D01*
X142629212Y-85904563D01*
X142543875Y-85959923D01*
X142448456Y-86023980D01*
X142421854Y-86042197D01*
X142325167Y-86108573D01*
X142238117Y-86168122D01*
X142165595Y-86217516D01*
X142112493Y-86253425D01*
X142083703Y-86272519D01*
X142080726Y-86274364D01*
X142057782Y-86271605D01*
X142007336Y-86256962D01*
X141936041Y-86232987D01*
X141850547Y-86202234D01*
X141757507Y-86167256D01*
X141663574Y-86130607D01*
X141575399Y-86094839D01*
X141499634Y-86062506D01*
X141442931Y-86036162D01*
X141411943Y-86018358D01*
X141410457Y-86017093D01*
X141401601Y-86006206D01*
X141392843Y-85987818D01*
X141383277Y-85957894D01*
X141371996Y-85912397D01*
X141358093Y-85847291D01*
X141340663Y-85758539D01*
X141318798Y-85642107D01*
X141291591Y-85493958D01*
X141285741Y-85461882D01*
X141267374Y-85366814D01*
X141249405Y-85283935D01*
X141233569Y-85220570D01*
X141221600Y-85184042D01*
X141218810Y-85179144D01*
X141194072Y-85171073D01*
X141138790Y-85164513D01*
X141059389Y-85159467D01*
X140962296Y-85155941D01*
X140853938Y-85153939D01*
X140740740Y-85153464D01*
X140629128Y-85154523D01*
X140525529Y-85157118D01*
X140436368Y-85161254D01*
X140368072Y-85166937D01*
X140327066Y-85174169D01*
X140318674Y-85178529D01*
X140310208Y-85202802D01*
X140296435Y-85258074D01*
X140278550Y-85338838D01*
X140257748Y-85439588D01*
X140235223Y-85554817D01*
X140223418Y-85617598D01*
X140201151Y-85736713D01*
X140180979Y-85842935D01*
X140163915Y-85931073D01*
X140150969Y-85995934D01*
X140143155Y-86032326D01*
X140141422Y-86038316D01*
X140121890Y-86048439D01*
X140074843Y-86069838D01*
X140007003Y-86099661D01*
X139925091Y-86135055D01*
X139835828Y-86173168D01*
X139745935Y-86211147D01*
X139662135Y-86246140D01*
X139591147Y-86275294D01*
X139539694Y-86295757D01*
X139514497Y-86304677D01*
X139513396Y-86304843D01*
X139493519Y-86294731D01*
X139447777Y-86266383D01*
X139380717Y-86222777D01*
X139296884Y-86166894D01*
X139200826Y-86101713D01*
X139145650Y-86063821D01*
X139044481Y-85994775D01*
X138952630Y-85933450D01*
X138874744Y-85882837D01*
X138815469Y-85845929D01*
X138779451Y-85825718D01*
X138771377Y-85822799D01*
X138752584Y-85835347D01*
X138712457Y-85870037D01*
X138655493Y-85922437D01*
X138586185Y-85988116D01*
X138509031Y-86062644D01*
X138428525Y-86141587D01*
X138349163Y-86220517D01*
X138275440Y-86295000D01*
X138211852Y-86360606D01*
X138162894Y-86412904D01*
X138133061Y-86447461D01*
X138125942Y-86459022D01*
X138135953Y-86477846D01*
X138164078Y-86522869D01*
X138207454Y-86589713D01*
X138263218Y-86674001D01*
X138328506Y-86771356D01*
X138378246Y-86844793D01*
X138630551Y-87215833D01*
X138375555Y-87834405D01*
X137930931Y-87918225D01*
X137486307Y-88002046D01*
X137486307Y-88927494D01*
X137930931Y-89011314D01*
X137930931Y-89011314D01*
G37*
X137930931Y-89011314D02*
X138375555Y-89095135D01*
X138503053Y-89404420D01*
X138630551Y-89713706D01*
X138378246Y-90084746D01*
X138307996Y-90188657D01*
X138245272Y-90282587D01*
X138192938Y-90362152D01*
X138153857Y-90422970D01*
X138130893Y-90460657D01*
X138125942Y-90470921D01*
X138138676Y-90489410D01*
X138173882Y-90528920D01*
X138227062Y-90585022D01*
X138293718Y-90653287D01*
X138369354Y-90729286D01*
X138449472Y-90808592D01*
X138529574Y-90886775D01*
X138605164Y-90959407D01*
X138671745Y-91022059D01*
X138724818Y-91070303D01*
X138759887Y-91099710D01*
X138771623Y-91106741D01*
X138793260Y-91096623D01*
X138840662Y-91068259D01*
X138909193Y-91024629D01*
X138994215Y-90968718D01*
X139091093Y-90903506D01*
X139146350Y-90865719D01*
X139247248Y-90796843D01*
X139338299Y-90735640D01*
X139414970Y-90685078D01*
X139472728Y-90648128D01*
X139507043Y-90627758D01*
X139514254Y-90624697D01*
X139534748Y-90631636D01*
X139582513Y-90650551D01*
X139650832Y-90678587D01*
X139732989Y-90712891D01*
X139822270Y-90750609D01*
X139911958Y-90788887D01*
X139995338Y-90824870D01*
X140065694Y-90855706D01*
X140116310Y-90878539D01*
X140140471Y-90890517D01*
X140141422Y-90891224D01*
X140146036Y-90910031D01*
X140156328Y-90960118D01*
X140171287Y-91036293D01*
X140189901Y-91133365D01*
X140211159Y-91246143D01*
X140223418Y-91311942D01*
X140246362Y-91432450D01*
X140268195Y-91541297D01*
X140287722Y-91632976D01*
X140303748Y-91701981D01*
X140315079Y-91742804D01*
X140318674Y-91751011D01*
X140343006Y-91759048D01*
X140397959Y-91765533D01*
X140477108Y-91770470D01*
X140574026Y-91773864D01*
X140682287Y-91775718D01*
X140795465Y-91776038D01*
X140907135Y-91774827D01*
X141010868Y-91772090D01*
X141100241Y-91767831D01*
X141168826Y-91762055D01*
X141210197Y-91754767D01*
X141218810Y-91750395D01*
X141229133Y-91724264D01*
X141243892Y-91668893D01*
X141261352Y-91591607D01*
X141279780Y-91499730D01*
X141285741Y-91467658D01*
X141314066Y-91313024D01*
X141336876Y-91190875D01*
X141355080Y-91097173D01*
X141369583Y-91027884D01*
X141381292Y-90978971D01*
X141391115Y-90946397D01*
X141399956Y-90926128D01*
X141408724Y-90914126D01*
X141410457Y-90912447D01*
X141438371Y-90895684D01*
X141492695Y-90870114D01*
X141566777Y-90838288D01*
X141653965Y-90802760D01*
X141747608Y-90766083D01*
X141841052Y-90730811D01*
X141927647Y-90699496D01*
X142000740Y-90674693D01*
X142053678Y-90658954D01*
X142079811Y-90654832D01*
X142080726Y-90655176D01*
X142102086Y-90669141D01*
X142149084Y-90700822D01*
X142216827Y-90746891D01*
X142300423Y-90804018D01*
X142394982Y-90868873D01*
X142421854Y-90887343D01*
X142519275Y-90953199D01*
X142608163Y-91011150D01*
X142683412Y-91058038D01*
X142739920Y-91090707D01*
X142772581Y-91106000D01*
X142776593Y-91106741D01*
X142797684Y-91093892D01*
X142839464Y-91058388D01*
X142897445Y-91004793D01*
X142967135Y-90937671D01*
X143044045Y-90861587D01*
X143123683Y-90781104D01*
X143201561Y-90700787D01*
X143273186Y-90625199D01*
X143334070Y-90558905D01*
X143379721Y-90506469D01*
X143405650Y-90472455D01*
X143409883Y-90463045D01*
X143399912Y-90441143D01*
X143373020Y-90396300D01*
X143333736Y-90335821D01*
X143302117Y-90289289D01*
X143244098Y-90204975D01*
X143175784Y-90105126D01*
X143107579Y-90004973D01*
X143071075Y-89951127D01*
X142947800Y-89768871D01*
X143030520Y-89615881D01*
X143066759Y-89546182D01*
X143094926Y-89486914D01*
X143110991Y-89446811D01*
X143113226Y-89436603D01*
X143096722Y-89424329D01*
X143050082Y-89400113D01*
X142977609Y-89365763D01*
X142883606Y-89323088D01*
X142772374Y-89273894D01*
X142648215Y-89219990D01*
X142515432Y-89163184D01*
X142378327Y-89105282D01*
X142241202Y-89048093D01*
X142108358Y-88993424D01*
X141984098Y-88943084D01*
X141872725Y-88898880D01*
X141778539Y-88862619D01*
X141705844Y-88836109D01*
X141658941Y-88821158D01*
X141642833Y-88818754D01*
X141622286Y-88837811D01*
X141588933Y-88879536D01*
X141549702Y-88935206D01*
X141546599Y-88939878D01*
X141431423Y-89083764D01*
X141297053Y-89199783D01*
X141147784Y-89286930D01*
X140987913Y-89344199D01*
X140821737Y-89370586D01*
X140653552Y-89365085D01*
X140487655Y-89326690D01*
X140328342Y-89254395D01*
X140293487Y-89233126D01*
X140152737Y-89122496D01*
X140039714Y-88991802D01*
X139955003Y-88845564D01*
X139899194Y-88688308D01*
X139872874Y-88524557D01*
X139876630Y-88358833D01*
X139911050Y-88195662D01*
X139976723Y-88039565D01*
X140074235Y-87895067D01*
X140113813Y-87850369D01*
X140237703Y-87736612D01*
X140368124Y-87653718D01*
X140514315Y-87596856D01*
X140659088Y-87565187D01*
X140821860Y-87557369D01*
X140985440Y-87583438D01*
X141144298Y-87640745D01*
X141292906Y-87726644D01*
X141425735Y-87838486D01*
X141537256Y-87973623D01*
X141549011Y-87991383D01*
X141587508Y-88047650D01*
X141620863Y-88090423D01*
X141642160Y-88110872D01*
X141642833Y-88111169D01*
X141665871Y-88106779D01*
X141718157Y-88089376D01*
X141795390Y-88060768D01*
X141893268Y-88022765D01*
X142007491Y-87977174D01*
X142133758Y-87925803D01*
X142267767Y-87870462D01*
X142405218Y-87812958D01*
X142541808Y-87755101D01*
X142673237Y-87698698D01*
X142795205Y-87645558D01*
X142903409Y-87597490D01*
X142993549Y-87556301D01*
X143061323Y-87523801D01*
X143102430Y-87501797D01*
X143113226Y-87492936D01*
X143104819Y-87465860D01*
X143082272Y-87415197D01*
X143049613Y-87349683D01*
X143030520Y-87313659D01*
X142947800Y-87160668D01*
X143071075Y-86978412D01*
X143134228Y-86885375D01*
X143203727Y-86783515D01*
X143269165Y-86688062D01*
X143302117Y-86640250D01*
X143347273Y-86573005D01*
X143383057Y-86516064D01*
X143404938Y-86476854D01*
X143409563Y-86464119D01*
X143397085Y-86445583D01*
X143362252Y-86404559D01*
X143308678Y-86345025D01*
X143239983Y-86270958D01*
X143159781Y-86186335D01*
X143108286Y-86132815D01*
X143016286Y-86039181D01*
X142933999Y-85958259D01*
X142864945Y-85893323D01*
X142812644Y-85847642D01*
X142780616Y-85824489D01*
X142774116Y-85822268D01*
X142749394Y-85832576D01*
X142699405Y-85861061D01*
X142629212Y-85904563D01*
X142543875Y-85959923D01*
X142448456Y-86023980D01*
X142421854Y-86042197D01*
X142325167Y-86108573D01*
X142238117Y-86168122D01*
X142165595Y-86217516D01*
X142112493Y-86253425D01*
X142083703Y-86272519D01*
X142080726Y-86274364D01*
X142057782Y-86271605D01*
X142007336Y-86256962D01*
X141936041Y-86232987D01*
X141850547Y-86202234D01*
X141757507Y-86167256D01*
X141663574Y-86130607D01*
X141575399Y-86094839D01*
X141499634Y-86062506D01*
X141442931Y-86036162D01*
X141411943Y-86018358D01*
X141410457Y-86017093D01*
X141401601Y-86006206D01*
X141392843Y-85987818D01*
X141383277Y-85957894D01*
X141371996Y-85912397D01*
X141358093Y-85847291D01*
X141340663Y-85758539D01*
X141318798Y-85642107D01*
X141291591Y-85493958D01*
X141285741Y-85461882D01*
X141267374Y-85366814D01*
X141249405Y-85283935D01*
X141233569Y-85220570D01*
X141221600Y-85184042D01*
X141218810Y-85179144D01*
X141194072Y-85171073D01*
X141138790Y-85164513D01*
X141059389Y-85159467D01*
X140962296Y-85155941D01*
X140853938Y-85153939D01*
X140740740Y-85153464D01*
X140629128Y-85154523D01*
X140525529Y-85157118D01*
X140436368Y-85161254D01*
X140368072Y-85166937D01*
X140327066Y-85174169D01*
X140318674Y-85178529D01*
X140310208Y-85202802D01*
X140296435Y-85258074D01*
X140278550Y-85338838D01*
X140257748Y-85439588D01*
X140235223Y-85554817D01*
X140223418Y-85617598D01*
X140201151Y-85736713D01*
X140180979Y-85842935D01*
X140163915Y-85931073D01*
X140150969Y-85995934D01*
X140143155Y-86032326D01*
X140141422Y-86038316D01*
X140121890Y-86048439D01*
X140074843Y-86069838D01*
X140007003Y-86099661D01*
X139925091Y-86135055D01*
X139835828Y-86173168D01*
X139745935Y-86211147D01*
X139662135Y-86246140D01*
X139591147Y-86275294D01*
X139539694Y-86295757D01*
X139514497Y-86304677D01*
X139513396Y-86304843D01*
X139493519Y-86294731D01*
X139447777Y-86266383D01*
X139380717Y-86222777D01*
X139296884Y-86166894D01*
X139200826Y-86101713D01*
X139145650Y-86063821D01*
X139044481Y-85994775D01*
X138952630Y-85933450D01*
X138874744Y-85882837D01*
X138815469Y-85845929D01*
X138779451Y-85825718D01*
X138771377Y-85822799D01*
X138752584Y-85835347D01*
X138712457Y-85870037D01*
X138655493Y-85922437D01*
X138586185Y-85988116D01*
X138509031Y-86062644D01*
X138428525Y-86141587D01*
X138349163Y-86220517D01*
X138275440Y-86295000D01*
X138211852Y-86360606D01*
X138162894Y-86412904D01*
X138133061Y-86447461D01*
X138125942Y-86459022D01*
X138135953Y-86477846D01*
X138164078Y-86522869D01*
X138207454Y-86589713D01*
X138263218Y-86674001D01*
X138328506Y-86771356D01*
X138378246Y-86844793D01*
X138630551Y-87215833D01*
X138375555Y-87834405D01*
X137930931Y-87918225D01*
X137486307Y-88002046D01*
X137486307Y-88927494D01*
X137930931Y-89011314D01*
D12*
G04 #@! TO.C,C1*
X133806000Y-83492078D02*
X133806000Y-82974922D01*
X132386000Y-83492078D02*
X132386000Y-82974922D01*
G04 #@! TO.C,C2*
X137504000Y-85743564D02*
X137504000Y-84539436D01*
X134784000Y-85743564D02*
X134784000Y-84539436D01*
G04 #@! TO.C,R1*
X136854000Y-81030578D02*
X136854000Y-80513422D01*
X135434000Y-81030578D02*
X135434000Y-80513422D01*
G04 #@! TD*
M02*
