G04 #@! TF.GenerationSoftware,KiCad,Pcbnew,(5.0.2)-1*
G04 #@! TF.CreationDate,2019-08-18T16:28:34-04:00*
G04 #@! TF.ProjectId,stacked_model3_usb,73746163-6b65-4645-9f6d-6f64656c335f,rev?*
G04 #@! TF.SameCoordinates,Original*
G04 #@! TF.FileFunction,Legend,Top*
G04 #@! TF.FilePolarity,Positive*
%FSLAX46Y46*%
G04 Gerber Fmt 4.6, Leading zero omitted, Abs format (unit mm)*
G04 Created by KiCad (PCBNEW (5.0.2)-1) date 2019-08-18 4:28:34 PM*
%MOMM*%
%LPD*%
G01*
G04 APERTURE LIST*
%ADD10C,0.275000*%
%ADD11C,0.100000*%
%ADD12C,0.127000*%
%ADD13C,0.400000*%
G04 APERTURE END LIST*
D10*
X135785714Y-75542857D02*
X135785714Y-74342857D01*
X136047619Y-74342857D01*
X136204761Y-74400000D01*
X136309523Y-74514285D01*
X136361904Y-74628571D01*
X136414285Y-74857142D01*
X136414285Y-75028571D01*
X136361904Y-75257142D01*
X136309523Y-75371428D01*
X136204761Y-75485714D01*
X136047619Y-75542857D01*
X135785714Y-75542857D01*
X136833333Y-75200000D02*
X137357142Y-75200000D01*
X136728571Y-75542857D02*
X137095238Y-74342857D01*
X137461904Y-75542857D01*
X137671428Y-74342857D02*
X138300000Y-74342857D01*
X137985714Y-75542857D02*
X137985714Y-74342857D01*
X138614285Y-75200000D02*
X139138095Y-75200000D01*
X138509523Y-75542857D02*
X138876190Y-74342857D01*
X139242857Y-75542857D01*
X140290476Y-74342857D02*
X140919047Y-74342857D01*
X140604761Y-75542857D02*
X140604761Y-74342857D01*
X141495238Y-74342857D02*
X141704761Y-74342857D01*
X141809523Y-74400000D01*
X141914285Y-74514285D01*
X141966666Y-74742857D01*
X141966666Y-75142857D01*
X141914285Y-75371428D01*
X141809523Y-75485714D01*
X141704761Y-75542857D01*
X141495238Y-75542857D01*
X141390476Y-75485714D01*
X141285714Y-75371428D01*
X141233333Y-75142857D01*
X141233333Y-74742857D01*
X141285714Y-74514285D01*
X141390476Y-74400000D01*
X141495238Y-74342857D01*
X142438095Y-75542857D02*
X142438095Y-74342857D01*
X142857142Y-74342857D01*
X142961904Y-74400000D01*
X143014285Y-74457142D01*
X143066666Y-74571428D01*
X143066666Y-74742857D01*
X143014285Y-74857142D01*
X142961904Y-74914285D01*
X142857142Y-74971428D01*
X142438095Y-74971428D01*
D11*
G04 #@! TO.C,J1*
X119370000Y-89410001D02*
X118420000Y-89410001D01*
X120120000Y-77160001D02*
X118345000Y-77160001D01*
X120120000Y-89410001D02*
X119345000Y-89410001D01*
X103995000Y-77860001D02*
X103995000Y-77160001D01*
X103995000Y-77160001D02*
X104545000Y-77160001D01*
X103995000Y-88685001D02*
X103995000Y-89410001D01*
X103995000Y-89410001D02*
X104595000Y-89410001D01*
D12*
G04 #@! TO.C,J2*
X144354600Y-90053100D02*
X135554600Y-90053100D01*
X135554600Y-76488100D02*
X144354600Y-76488100D01*
X144354600Y-76488100D02*
X144354600Y-90053100D01*
D13*
X126474600Y-86779600D02*
G75*
G03X126474600Y-86779600I-200000J0D01*
G01*
D12*
X126854600Y-87635600D02*
X126854600Y-78805600D01*
X131654600Y-90053100D02*
X129854600Y-90053100D01*
X129854600Y-76488100D02*
X131654600Y-76488100D01*
G04 #@! TD*
M02*
