M48
;DRILL file {KiCad (5.0.2)-1} date 2019-08-18 4:28:24 PM
;FORMAT={-:-/ absolute / inch / decimal}
FMAT,2
INCH,TZ
T1C0.0197
T2C0.0362
T3C0.0394
T4C0.0472
T5C0.0906
T6C0.1024
%
G90
G05
T1
X5.2441Y-3.1417
T2
X5.049Y-3.1406
X5.049Y-3.239
X5.049Y-3.3177
X5.049Y-3.4162
X5.1521Y-3.1406
X5.1521Y-3.239
X5.1521Y-3.3177
X5.1521Y-3.4162
T3
X4.8827Y-3.1411
X4.8827Y-3.2396
X4.8827Y-3.3183
X4.8827Y-3.4167
T4
X4.8Y-3.1884
X4.8Y-3.3695
T5
X5.0352Y-3.0197
X5.0352Y-3.537
X5.2588Y-3.0197
X5.2588Y-3.537
T6
X4.8Y-3.0486
X4.8Y-3.5093
T0
M30
